<?xml version="1.0" standalone="no"?><!DOCTYPE svg PUBLIC "-//W3C//DTD SVG 1.1//EN" "http://www.w3.org/Graphics/SVG/1.1/DTD/svg11.dtd"><svg t="1759898547667" class="icon" viewBox="0 0 1024 1024" version="1.1" xmlns="http://www.w3.org/2000/svg" p-id="2083" xmlns:xlink="http://www.w3.org/1999/xlink" width="200" height="200"><path d="M896 64v864a64 64 0 0 1-64 64H192a64 64 0 0 1-64-64V128h96a32.096 32.096 0 0 0 32-32V0h576a64 64 0 0 1 64 64z" fill="#E1E7F7" p-id="2084"></path><path d="M256 0v96a32.096 32.096 0 0 1-32 32H128z" fill="#999DC2" p-id="2085"></path><path d="M288 96V0h-32v96a32.096 32.096 0 0 1-32 32H128v32h96a64 64 0 0 0 64-64z" fill="#D3D9F2" p-id="2086"></path><path d="M832 0H288v96a64 64 0 0 1-64 64h-32v192a576 576 0 0 0 576 576h128V64a64 64 0 0 0-64-64z" fill="#F7F7FF" p-id="2087"></path><path d="M224 128h-32v32h32a64 64 0 0 0 64-64V0h-32v96a32.096 32.096 0 0 1-32 32z" fill="#E1E7F7" p-id="2088"></path><path d="M272 208h480a64 64 0 0 1 64 64v160a62.896 62.896 0 0 1-5.76 26.24L608 256l-128 128-80-80-173.28 173.28A64.4 64.4 0 0 1 208 432V272a64 64 0 0 1 64-64z" fill="#94F4FF" p-id="2089"></path><path d="M592 496H272a64.4 64.4 0 0 1-45.28-18.72L400 304l80 80z" fill="#79E78E" p-id="2090"></path><path d="M608 256l202.24 202.24A63.808 63.808 0 0 1 752 496H592l-112-112z" fill="#1FD8B9" p-id="2091"></path><path d="M527.04 885.6L468.8 944h-64.16l-126.08-126.08a32 32 0 0 1 0-45.28l67.84-67.68z" fill="#F7F7FF" p-id="2092"></path><path d="M589.76 845.76l-51.36 51.2-11.36-11.36-180.64-180.64-11.36-11.36 51.36-51.2z" fill="#00E3F6" p-id="2093"></path><path d="M724.64 496L832 603.36l-50.24 50.4-203.36-203.36L628.64 400z" fill="#94F4FF" p-id="2094"></path><path d="M781.76 653.76l-192 192-203.36-203.36 120-120 72-72z" fill="#5F54FF" p-id="2095"></path><path d="M278.56 772.64l67.84-67.68-11.36-11.36 51.36-51.2 120-120 72-72 10.304-10.336L548.64 400l-50.24 50.4-72 72-120 120-51.36 51.2 11.36 11.36-67.84 67.68a32 32 0 0 0 0 45.28L324.64 944h64.16l7.904-8-118.144-118.08a32 32 0 0 1 0-45.28z" fill="#777EAD" p-id="2096"></path><path d="M562.4 466.4l-40.032-40.032-23.968 24.032L452.8 496h80z" fill="#37CDC2" p-id="2097"></path><path d="M588.704 440.064L548.64 400l-26.272 26.368 40.032 40.032 16-16z" fill="#30B3AA" p-id="2098"></path><path d="M452.8 496l-16 16h80l16-16z" fill="#484C6B" p-id="2099"></path><path d="M304 944m8 0l384 0q8 0 8 8l0 0q0 8-8 8l-384 0q-8 0-8-8l0 0q0-8 8-8Z" fill="#F7F7FF" p-id="2100"></path><path d="M720 944m8 0l48 0q8 0 8 8l0 0q0 8-8 8l-48 0q-8 0-8-8l0 0q0-8 8-8Z" fill="#F7F7FF" p-id="2101"></path><path d="M309.632 741.632l107.744 107.744a32 32 0 0 1 0 45.248l-31.056 31.056L404.64 944h64.16l58.24-58.4-180.64-180.64z" fill="#D3D9F2" p-id="2102"></path><path d="M466.752 754.752l-96.384-96.384-35.328 35.2 11.36 11.36L527.04 885.6l11.36 11.36 51.36-51.2-72.752-72.752a63.552 63.552 0 0 1-50.256-18.256zM719.872 592.032l50.304-50.32 61.712 61.712-50.32 50.32z" fill="#00C3E0" p-id="2103"></path><path d="M557.248 754.752a63.408 63.408 0 0 1-40.24 18.256l72.752 72.752 192-192L720 592z" fill="#4138C2" p-id="2104"></path><path d="M456 664a32 32 0 0 1-22.624-54.624l120-120a32 32 0 0 1 45.248 45.248l-120 120a31.872 31.872 0 0 1-22.624 9.376z" fill="#8A98FF" p-id="2105"></path></svg>